<?xml version="1.0" standalone="no"?>
<!DOCTYPE svg PUBLIC "-//W3C//DTD SVG 20010904//EN"
 "http://www.w3.org/TR/2001/REC-SVG-20010904/DTD/svg10.dtd">
<svg version="1.0" xmlns="http://www.w3.org/2000/svg"
 width="260.000000pt" height="260.000000pt" viewBox="0 0 260.000000 260.000000"
 preserveAspectRatio="xMidYMid meet">
<metadata>
Created by potrace 1.11, written by Peter Selinger 2001-2013
</metadata>
<g transform="translate(0.000000,260.000000) scale(0.100000,-0.100000)"
fill="#000000" stroke="none">
<path d="M0 1300 l0 -1300 1300 0 1300 0 0 255 0 255 -110 0 -110 0 0 -110 0
-109 108 -4 107 -3 -107 -2 -107 -2 -4 -122 c-1 -68 -4 -14 -5 120 l-2 242
115 0 114 0 -5 298 c-3 163 -7 312 -9 330 -2 17 0 32 6 32 5 0 9 190 9 484 0
378 -3 485 -12 489 -10 4 -10 6 0 6 27 2 9 271 -19 271 -11 0 -118 -260 -113
-274 3 -7 -1 -16 -9 -19 -8 -3 -24 -31 -37 -64 -13 -32 -30 -67 -38 -78 l-14
-20 6 20 c26 80 193 455 203 455 7 0 17 -8 22 -17 8 -13 10 7 11 75 l0 92
-1300 0 -1300 0 0 -1300z m298 1260 l102 0 0 -55 0 -55 -47 -2 c-27 -1 -64 -3
-84 -3 -62 -3 -69 -9 -69 -64 l0 -50 93 -3 92 -3 0 -55 0 -55 -92 -3 -93 -3 0
-53 c0 -52 1 -54 31 -60 17 -3 62 -6 100 -6 l69 0 0 -54 0 -55 -42 -5 c-65 -8
-268 -4 -274 6 -11 18 -12 563 -1 577 8 9 25 12 62 7 27 -3 96 -6 153 -6z
m497 -14 c9 -13 24 -48 35 -77 18 -51 58 -150 93 -229 8 -19 32 -75 53 -125
21 -49 41 -94 46 -99 22 -26 7 -36 -56 -36 -63 0 -64 0 -76 33 -26 72 -29 87
-15 87 15 0 28 27 15 35 -4 3 -15 2 -24 -1 -8 -3 -63 -7 -122 -7 l-107 -2 -11
-45 c-7 -25 -19 -58 -27 -75 -14 -29 -17 -30 -74 -27 -32 1 -61 4 -63 7 -7 6
40 128 93 240 67 144 58 120 111 275 19 54 37 70 81 70 23 0 37 -7 48 -24z
m583 12 c15 -13 16 -72 2 -99 -8 -14 -21 -19 -55 -19 l-45 0 0 -230 0 -230
-23 -6 c-13 -3 -41 -4 -63 -2 l-39 3 -3 233 -2 232 -45 0 c-40 0 -47 3 -55 26
-14 35 -12 78 2 92 16 16 307 15 326 0z m307 -339 l40 -6 -42 -2 -42 -1 -4
-117 c-1 -65 -3 -10 -3 122 0 160 2 202 5 125 l6 -115 40 -6z m243 -6 c-1
-196 -3 -216 -7 -113 -6 130 -3 350 5 350 2 0 3 -107 2 -237z m124 7 l-2 -229
122 -4 123 -3 -127 -2 -128 -2 0 235 c0 129 3 235 8 235 4 0 6 -103 4 -230z
m-235 -6 c-3 -3 -12 -4 -19 -1 -8 3 -5 6 6 6 11 1 17 -2 13 -5z m331 -1 c-10
-2 -26 -2 -35 0 -10 3 -2 5 17 5 19 0 27 -2 18 -5z m100 0 c-10 -2 -26 -2 -35
0 -10 3 -2 5 17 5 19 0 27 -2 18 -5z m-994 -303 c59 -30 121 -96 147 -158 26
-60 24 -196 -4 -253 -96 -196 -351 -235 -505 -78 -107 109 -109 288 -5 405 38
43 91 80 138 98 59 22 170 15 229 -14z m-1011 -152 c23 -93 44 -168 48 -168 4
0 21 60 39 133 54 229 43 207 100 207 47 0 49 -1 55 -32 9 -45 76 -312 79
-315 1 -2 22 70 45 160 24 89 45 168 47 176 3 9 14 12 35 7 18 -3 43 -6 56 -6
22 0 24 -3 18 -32 -10 -48 -113 -434 -132 -495 l-17 -53 -52 0 c-42 0 -54 4
-58 18 -2 9 -19 81 -37 160 -18 78 -36 142 -39 142 -3 0 -24 -71 -45 -157 -21
-87 -43 -161 -49 -165 -23 -15 -85 -9 -95 10 -12 23 -161 547 -161 567 0 13
11 15 61 13 l62 -3 40 -167z m1532 161 c87 -23 145 -118 131 -213 -8 -54 -53
-118 -95 -136 -17 -7 -31 -18 -31 -24 0 -6 29 -49 65 -96 35 -47 64 -91 65
-97 0 -9 -21 -13 -72 -13 l-73 0 -27 43 c-15 24 -42 63 -60 88 l-33 44 -5 -85
-5 -85 -62 -3 -63 -3 0 296 0 295 113 0 c61 0 130 -5 152 -11z m335 -95 l5
-102 63 74 c34 40 62 77 62 82 0 21 40 40 98 46 48 5 62 4 62 -6 -1 -18 -49
-72 -58 -64 -3 4 0 11 8 16 12 7 12 12 2 22 -9 9 -12 9 -12 -5 0 -9 -5 -16
-11 -14 -6 1 -14 -4 -16 -11 -3 -7 1 -11 7 -10 22 5 22 -20 1 -32 -12 -6 -21
-19 -21 -28 0 -10 -23 -48 -51 -85 -27 -37 -47 -72 -44 -77 3 -6 51 -69 106
-141 54 -72 96 -135 93 -140 -3 -5 -34 -9 -70 -9 l-65 0 -77 105 -77 106 -3
-83 c-3 -130 -2 -128 -72 -128 l-60 0 0 295 0 296 63 -3 62 -3 5 -101z m-1800
-542 c32 -3 99 -70 112 -113 6 -22 9 -41 6 -44 -3 -3 -26 -7 -52 -10 -44 -5
-50 -2 -80 30 -41 43 -61 44 -85 4 -29 -47 -16 -67 65 -99 38 -15 88 -45 112
-66 39 -35 44 -45 49 -95 3 -33 1 -71 -6 -92 -21 -63 -112 -127 -181 -127 -89
0 -190 90 -190 170 l0 30 58 0 c53 -1 58 -3 77 -33 39 -62 125 -42 125 29 0
26 -7 39 -33 58 -19 15 -41 26 -51 26 -34 0 -114 50 -135 83 -25 40 -28 114
-7 155 20 39 59 72 101 86 33 12 54 13 115 8z m500 -62 l0 -60 -56 0 -56 0 2
-222 c1 -123 2 -229 1 -235 -1 -9 -20 -13 -62 -13 l-61 0 6 158 c9 217 9 211
1 265 -7 42 -10 47 -34 47 -61 0 -71 9 -71 61 l0 48 83 4 c45 1 119 4 165 5
l82 2 0 -60z m385 -32 c20 -51 45 -111 55 -133 66 -148 139 -323 142 -340 3
-18 -3 -20 -62 -23 l-65 -2 -30 72 -31 73 -95 3 -96 3 -29 -76 -29 -75 -68 0
c-81 0 -81 -17 -5 160 62 143 85 196 140 333 l40 97 48 0 47 0 38 -92z m357
70 c8 -13 33 -67 57 -120 24 -54 47 -98 51 -98 4 0 33 54 64 120 l58 120 64 0
c35 0 64 -4 64 -10 0 -5 -10 -26 -21 -47 -12 -21 -54 -96 -93 -168 l-71 -130
-1 -105 c0 -58 -1 -111 -2 -117 -1 -9 -22 -13 -62 -13 l-60 0 0 113 0 112 -95
175 c-51 96 -91 178 -89 182 3 4 31 8 63 8 50 0 61 -3 73 -22z m680 -95 c-43
-21 -66 -65 -59 -115 6 -48 34 -71 107 -92 82 -24 117 -49 129 -93 15 -51 14
-58 -8 -101 -17 -34 -66 -70 -78 -58 -2 2 5 7 16 11 37 11 61 54 61 107 0 42
-5 54 -29 77 -16 15 -56 35 -90 44 -35 10 -75 29 -93 46 -28 25 -33 36 -32 74
1 62 45 116 94 116 8 0 0 -7 -18 -16z m111 6 c30 -17 56 -51 57 -74 0 -14 -5
-10 -18 15 -10 19 -34 43 -53 52 -19 10 -28 18 -21 18 7 0 23 -5 35 -11z
m-179 -383 c3 -13 22 -38 41 -55 42 -37 30 -42 -13 -6 -29 24 -59 85 -43 85 5
0 12 -11 15 -24z m139 -93 c-7 -2 -21 -2 -30 0 -10 3 -4 5 12 5 17 0 24 -2 18
-5z m-1966 -95 c69 -46 94 -139 54 -204 l-19 -32 29 -28 c56 -54 62 -142 14
-215 -37 -56 -82 -73 -218 -79 -65 -3 -125 -2 -132 3 -11 6 -14 65 -15 290 0
156 3 287 7 291 4 4 60 6 124 4 105 -3 119 -5 156 -30z m315 -188 c3 -204 4
-221 23 -239 37 -36 92 -29 115 14 10 18 14 80 14 232 l1 208 63 3 63 3 -3
-233 c-3 -203 -5 -238 -22 -270 -21 -43 -92 -95 -145 -104 -78 -15 -175 35
-215 112 -19 35 -21 60 -24 252 -2 117 -1 220 2 228 4 10 22 14 65 14 l60 0 3
-220z m516 -74 c2 -225 -1 -291 -10 -298 -7 -4 -30 -8 -50 -8 -72 0 -68 -20
-68 307 l0 294 63 -3 62 -3 3 -289z m238 268 c4 -14 4 -54 0 -87 -3 -34 -3
-128 0 -209 l7 -147 81 -3 81 -3 0 -60 0 -60 -145 0 -145 0 -3 285 c-1 157 0
290 3 297 3 8 24 13 59 13 51 0 56 -2 62 -26z m539 -3 c127 -56 195 -193 165
-334 -24 -118 -114 -205 -233 -226 -69 -12 -196 -15 -221 -5 -14 5 -16 41 -16
293 0 158 3 291 8 295 4 5 61 6 127 4 95 -4 130 -9 170 -27z"/>
<path d="M713 2321 c-32 -67 -30 -79 14 -87 42 -8 69 5 65 32 -5 28 -41 104
-50 104 -4 -1 -17 -22 -29 -49z"/>
<path d="M967 1845 c-10 -14 -16 -29 -12 -34 3 -5 0 -13 -6 -17 -8 -5 -9 -3
-4 6 5 9 4 11 -3 6 -14 -9 -16 -73 -2 -78 6 -2 5 -19 -2 -45 -12 -50 2 -120
33 -164 26 -37 96 -69 150 -69 100 0 186 98 177 200 -11 108 -89 173 -205 169
-65 -2 -82 6 -83 39 0 20 -24 13 -43 -13z m18 -75 c-10 -11 -23 -20 -28 -20
-6 0 -2 9 8 20 10 11 23 20 28 20 6 0 2 -9 -8 -20z"/>
<path d="M1635 1788 c-3 -13 -5 -49 -3 -79 l3 -54 54 2 c67 3 91 22 91 73 0
49 -26 72 -89 78 -46 4 -50 3 -56 -20z"/>
<path d="M540 1220 c-12 -8 -9 -10 12 -10 15 0 30 5 33 10 8 13 -25 13 -45 0z"/>
<path d="M1097 1073 c-3 -4 -9 -24 -15 -43 -5 -19 -13 -43 -17 -52 -6 -16 -1
-18 40 -18 44 0 47 2 42 23 -3 12 -10 37 -14 56 -8 33 -26 50 -36 34z"/>
<path d="M180 455 c0 -44 1 -45 31 -45 42 0 69 17 69 43 0 33 -19 47 -62 47
l-38 0 0 -45z"/>
<path d="M187 283 c-4 -3 -7 -33 -7 -65 l0 -58 39 0 c77 0 114 34 96 88 -9 30
-107 57 -128 35z"/>
<path d="M1770 329 l0 -172 60 6 c101 9 160 71 160 167 0 103 -72 170 -181
170 l-39 0 0 -171z"/>
</g>
</svg>
